G04 EAGLE Gerber RS-274X export*
G75*
%MOMM*%
%FSLAX34Y34*%
%LPD*%
%INSoldermask Bottom*%
%IPPOS*%
%AMOC8*
5,1,8,0,0,1.08239X$1,22.5*%
G01*
%ADD10C,3.454400*%
%ADD11C,0.787400*%
%ADD12C,1.221313*%
%ADD13C,0.251966*%
%ADD14C,2.032000*%
%ADD15C,1.152400*%
%ADD16C,1.270000*%
%ADD17C,1.652400*%

G36*
X95950Y1522107D02*
X95950Y1522107D01*
X96016Y1522109D01*
X96059Y1522127D01*
X96106Y1522135D01*
X96163Y1522169D01*
X96223Y1522194D01*
X96258Y1522225D01*
X96299Y1522250D01*
X96341Y1522301D01*
X96389Y1522345D01*
X96411Y1522387D01*
X96440Y1522424D01*
X96461Y1522486D01*
X96492Y1522545D01*
X96500Y1522599D01*
X96512Y1522636D01*
X96511Y1522676D01*
X96519Y1522730D01*
X96519Y1525270D01*
X96508Y1525335D01*
X96506Y1525401D01*
X96488Y1525444D01*
X96480Y1525491D01*
X96446Y1525548D01*
X96421Y1525608D01*
X96390Y1525643D01*
X96365Y1525684D01*
X96314Y1525726D01*
X96270Y1525774D01*
X96228Y1525796D01*
X96191Y1525825D01*
X96129Y1525846D01*
X96070Y1525877D01*
X96016Y1525885D01*
X95979Y1525897D01*
X95939Y1525896D01*
X95885Y1525904D01*
X92075Y1525904D01*
X92010Y1525893D01*
X91944Y1525891D01*
X91901Y1525873D01*
X91854Y1525865D01*
X91797Y1525831D01*
X91737Y1525806D01*
X91702Y1525775D01*
X91661Y1525750D01*
X91620Y1525699D01*
X91571Y1525655D01*
X91549Y1525613D01*
X91520Y1525576D01*
X91499Y1525514D01*
X91468Y1525455D01*
X91460Y1525401D01*
X91448Y1525364D01*
X91448Y1525361D01*
X91449Y1525324D01*
X91441Y1525270D01*
X91441Y1522730D01*
X91452Y1522665D01*
X91454Y1522599D01*
X91472Y1522556D01*
X91480Y1522509D01*
X91514Y1522452D01*
X91539Y1522392D01*
X91570Y1522357D01*
X91595Y1522316D01*
X91646Y1522275D01*
X91690Y1522226D01*
X91732Y1522204D01*
X91769Y1522175D01*
X91831Y1522154D01*
X91890Y1522123D01*
X91944Y1522115D01*
X91981Y1522103D01*
X92021Y1522104D01*
X92075Y1522096D01*
X95885Y1522096D01*
X95950Y1522107D01*
G37*
G36*
X85790Y1522107D02*
X85790Y1522107D01*
X85856Y1522109D01*
X85899Y1522127D01*
X85946Y1522135D01*
X86003Y1522169D01*
X86063Y1522194D01*
X86098Y1522225D01*
X86139Y1522250D01*
X86181Y1522301D01*
X86229Y1522345D01*
X86251Y1522387D01*
X86280Y1522424D01*
X86301Y1522486D01*
X86332Y1522545D01*
X86340Y1522599D01*
X86352Y1522636D01*
X86351Y1522676D01*
X86359Y1522730D01*
X86359Y1525270D01*
X86348Y1525335D01*
X86346Y1525401D01*
X86328Y1525444D01*
X86320Y1525491D01*
X86286Y1525548D01*
X86261Y1525608D01*
X86230Y1525643D01*
X86205Y1525684D01*
X86154Y1525726D01*
X86110Y1525774D01*
X86068Y1525796D01*
X86031Y1525825D01*
X85969Y1525846D01*
X85910Y1525877D01*
X85856Y1525885D01*
X85819Y1525897D01*
X85779Y1525896D01*
X85725Y1525904D01*
X81915Y1525904D01*
X81850Y1525893D01*
X81784Y1525891D01*
X81741Y1525873D01*
X81694Y1525865D01*
X81637Y1525831D01*
X81577Y1525806D01*
X81542Y1525775D01*
X81501Y1525750D01*
X81460Y1525699D01*
X81411Y1525655D01*
X81389Y1525613D01*
X81360Y1525576D01*
X81339Y1525514D01*
X81308Y1525455D01*
X81300Y1525401D01*
X81288Y1525364D01*
X81288Y1525361D01*
X81289Y1525324D01*
X81281Y1525270D01*
X81281Y1522730D01*
X81292Y1522665D01*
X81294Y1522599D01*
X81312Y1522556D01*
X81320Y1522509D01*
X81354Y1522452D01*
X81379Y1522392D01*
X81410Y1522357D01*
X81435Y1522316D01*
X81486Y1522275D01*
X81530Y1522226D01*
X81572Y1522204D01*
X81609Y1522175D01*
X81671Y1522154D01*
X81730Y1522123D01*
X81784Y1522115D01*
X81821Y1522103D01*
X81861Y1522104D01*
X81915Y1522096D01*
X85725Y1522096D01*
X85790Y1522107D01*
G37*
G36*
X115000Y1379867D02*
X115000Y1379867D01*
X115066Y1379869D01*
X115109Y1379887D01*
X115156Y1379895D01*
X115213Y1379929D01*
X115273Y1379954D01*
X115308Y1379985D01*
X115349Y1380010D01*
X115391Y1380061D01*
X115439Y1380105D01*
X115461Y1380147D01*
X115490Y1380184D01*
X115511Y1380246D01*
X115542Y1380305D01*
X115550Y1380359D01*
X115562Y1380396D01*
X115561Y1380436D01*
X115569Y1380490D01*
X115569Y1383030D01*
X115558Y1383095D01*
X115556Y1383161D01*
X115538Y1383204D01*
X115530Y1383251D01*
X115496Y1383308D01*
X115471Y1383368D01*
X115440Y1383403D01*
X115415Y1383444D01*
X115364Y1383486D01*
X115320Y1383534D01*
X115278Y1383556D01*
X115241Y1383585D01*
X115179Y1383606D01*
X115120Y1383637D01*
X115066Y1383645D01*
X115029Y1383657D01*
X114989Y1383656D01*
X114935Y1383664D01*
X111125Y1383664D01*
X111060Y1383653D01*
X110994Y1383651D01*
X110951Y1383633D01*
X110904Y1383625D01*
X110847Y1383591D01*
X110787Y1383566D01*
X110752Y1383535D01*
X110711Y1383510D01*
X110670Y1383459D01*
X110621Y1383415D01*
X110599Y1383373D01*
X110570Y1383336D01*
X110549Y1383274D01*
X110518Y1383215D01*
X110510Y1383161D01*
X110498Y1383124D01*
X110498Y1383121D01*
X110499Y1383084D01*
X110491Y1383030D01*
X110491Y1380490D01*
X110502Y1380425D01*
X110504Y1380359D01*
X110522Y1380316D01*
X110530Y1380269D01*
X110564Y1380212D01*
X110589Y1380152D01*
X110620Y1380117D01*
X110645Y1380076D01*
X110696Y1380035D01*
X110740Y1379986D01*
X110782Y1379964D01*
X110819Y1379935D01*
X110881Y1379914D01*
X110940Y1379883D01*
X110994Y1379875D01*
X111031Y1379863D01*
X111071Y1379864D01*
X111125Y1379856D01*
X114935Y1379856D01*
X115000Y1379867D01*
G37*
G36*
X78170Y1303667D02*
X78170Y1303667D01*
X78236Y1303669D01*
X78279Y1303687D01*
X78326Y1303695D01*
X78383Y1303729D01*
X78443Y1303754D01*
X78478Y1303785D01*
X78519Y1303810D01*
X78561Y1303861D01*
X78609Y1303905D01*
X78631Y1303947D01*
X78660Y1303984D01*
X78681Y1304046D01*
X78712Y1304105D01*
X78720Y1304159D01*
X78732Y1304196D01*
X78731Y1304236D01*
X78739Y1304290D01*
X78739Y1306830D01*
X78728Y1306895D01*
X78726Y1306961D01*
X78708Y1307004D01*
X78700Y1307051D01*
X78666Y1307108D01*
X78641Y1307168D01*
X78610Y1307203D01*
X78585Y1307244D01*
X78534Y1307286D01*
X78490Y1307334D01*
X78448Y1307356D01*
X78411Y1307385D01*
X78349Y1307406D01*
X78290Y1307437D01*
X78236Y1307445D01*
X78199Y1307457D01*
X78159Y1307456D01*
X78105Y1307464D01*
X74295Y1307464D01*
X74230Y1307453D01*
X74164Y1307451D01*
X74121Y1307433D01*
X74074Y1307425D01*
X74017Y1307391D01*
X73957Y1307366D01*
X73922Y1307335D01*
X73881Y1307310D01*
X73840Y1307259D01*
X73791Y1307215D01*
X73769Y1307173D01*
X73740Y1307136D01*
X73719Y1307074D01*
X73688Y1307015D01*
X73680Y1306961D01*
X73668Y1306924D01*
X73668Y1306921D01*
X73669Y1306884D01*
X73661Y1306830D01*
X73661Y1304290D01*
X73672Y1304225D01*
X73674Y1304159D01*
X73692Y1304116D01*
X73700Y1304069D01*
X73734Y1304012D01*
X73759Y1303952D01*
X73790Y1303917D01*
X73815Y1303876D01*
X73866Y1303835D01*
X73910Y1303786D01*
X73952Y1303764D01*
X73989Y1303735D01*
X74051Y1303714D01*
X74110Y1303683D01*
X74164Y1303675D01*
X74201Y1303663D01*
X74241Y1303664D01*
X74295Y1303656D01*
X78105Y1303656D01*
X78170Y1303667D01*
G37*
G36*
X95950Y1263027D02*
X95950Y1263027D01*
X96016Y1263029D01*
X96059Y1263047D01*
X96106Y1263055D01*
X96163Y1263089D01*
X96223Y1263114D01*
X96258Y1263145D01*
X96299Y1263170D01*
X96341Y1263221D01*
X96389Y1263265D01*
X96411Y1263307D01*
X96440Y1263344D01*
X96461Y1263406D01*
X96492Y1263465D01*
X96500Y1263519D01*
X96512Y1263556D01*
X96511Y1263596D01*
X96519Y1263650D01*
X96519Y1266190D01*
X96508Y1266255D01*
X96506Y1266321D01*
X96488Y1266364D01*
X96480Y1266411D01*
X96446Y1266468D01*
X96421Y1266528D01*
X96390Y1266563D01*
X96365Y1266604D01*
X96314Y1266646D01*
X96270Y1266694D01*
X96228Y1266716D01*
X96191Y1266745D01*
X96129Y1266766D01*
X96070Y1266797D01*
X96016Y1266805D01*
X95979Y1266817D01*
X95939Y1266816D01*
X95885Y1266824D01*
X92075Y1266824D01*
X92010Y1266813D01*
X91944Y1266811D01*
X91901Y1266793D01*
X91854Y1266785D01*
X91797Y1266751D01*
X91737Y1266726D01*
X91702Y1266695D01*
X91661Y1266670D01*
X91620Y1266619D01*
X91571Y1266575D01*
X91549Y1266533D01*
X91520Y1266496D01*
X91499Y1266434D01*
X91468Y1266375D01*
X91460Y1266321D01*
X91448Y1266284D01*
X91448Y1266281D01*
X91449Y1266244D01*
X91441Y1266190D01*
X91441Y1263650D01*
X91452Y1263585D01*
X91454Y1263519D01*
X91472Y1263476D01*
X91480Y1263429D01*
X91514Y1263372D01*
X91539Y1263312D01*
X91570Y1263277D01*
X91595Y1263236D01*
X91646Y1263195D01*
X91690Y1263146D01*
X91732Y1263124D01*
X91769Y1263095D01*
X91831Y1263074D01*
X91890Y1263043D01*
X91944Y1263035D01*
X91981Y1263023D01*
X92021Y1263024D01*
X92075Y1263016D01*
X95885Y1263016D01*
X95950Y1263027D01*
G37*
G36*
X85790Y1263027D02*
X85790Y1263027D01*
X85856Y1263029D01*
X85899Y1263047D01*
X85946Y1263055D01*
X86003Y1263089D01*
X86063Y1263114D01*
X86098Y1263145D01*
X86139Y1263170D01*
X86181Y1263221D01*
X86229Y1263265D01*
X86251Y1263307D01*
X86280Y1263344D01*
X86301Y1263406D01*
X86332Y1263465D01*
X86340Y1263519D01*
X86352Y1263556D01*
X86351Y1263596D01*
X86359Y1263650D01*
X86359Y1266190D01*
X86348Y1266255D01*
X86346Y1266321D01*
X86328Y1266364D01*
X86320Y1266411D01*
X86286Y1266468D01*
X86261Y1266528D01*
X86230Y1266563D01*
X86205Y1266604D01*
X86154Y1266646D01*
X86110Y1266694D01*
X86068Y1266716D01*
X86031Y1266745D01*
X85969Y1266766D01*
X85910Y1266797D01*
X85856Y1266805D01*
X85819Y1266817D01*
X85779Y1266816D01*
X85725Y1266824D01*
X81915Y1266824D01*
X81850Y1266813D01*
X81784Y1266811D01*
X81741Y1266793D01*
X81694Y1266785D01*
X81637Y1266751D01*
X81577Y1266726D01*
X81542Y1266695D01*
X81501Y1266670D01*
X81460Y1266619D01*
X81411Y1266575D01*
X81389Y1266533D01*
X81360Y1266496D01*
X81339Y1266434D01*
X81308Y1266375D01*
X81300Y1266321D01*
X81288Y1266284D01*
X81288Y1266281D01*
X81289Y1266244D01*
X81281Y1266190D01*
X81281Y1263650D01*
X81292Y1263585D01*
X81294Y1263519D01*
X81312Y1263476D01*
X81320Y1263429D01*
X81354Y1263372D01*
X81379Y1263312D01*
X81410Y1263277D01*
X81435Y1263236D01*
X81486Y1263195D01*
X81530Y1263146D01*
X81572Y1263124D01*
X81609Y1263095D01*
X81671Y1263074D01*
X81730Y1263043D01*
X81784Y1263035D01*
X81821Y1263023D01*
X81861Y1263024D01*
X81915Y1263016D01*
X85725Y1263016D01*
X85790Y1263027D01*
G37*
G36*
X115000Y1120787D02*
X115000Y1120787D01*
X115066Y1120789D01*
X115109Y1120807D01*
X115156Y1120815D01*
X115213Y1120849D01*
X115273Y1120874D01*
X115308Y1120905D01*
X115349Y1120930D01*
X115391Y1120981D01*
X115439Y1121025D01*
X115461Y1121067D01*
X115490Y1121104D01*
X115511Y1121166D01*
X115542Y1121225D01*
X115550Y1121279D01*
X115562Y1121316D01*
X115561Y1121356D01*
X115569Y1121410D01*
X115569Y1123950D01*
X115558Y1124015D01*
X115556Y1124081D01*
X115538Y1124124D01*
X115530Y1124171D01*
X115496Y1124228D01*
X115471Y1124288D01*
X115440Y1124323D01*
X115415Y1124364D01*
X115364Y1124406D01*
X115320Y1124454D01*
X115278Y1124476D01*
X115241Y1124505D01*
X115179Y1124526D01*
X115120Y1124557D01*
X115066Y1124565D01*
X115029Y1124577D01*
X114989Y1124576D01*
X114935Y1124584D01*
X111125Y1124584D01*
X111060Y1124573D01*
X110994Y1124571D01*
X110951Y1124553D01*
X110904Y1124545D01*
X110847Y1124511D01*
X110787Y1124486D01*
X110752Y1124455D01*
X110711Y1124430D01*
X110670Y1124379D01*
X110621Y1124335D01*
X110599Y1124293D01*
X110570Y1124256D01*
X110549Y1124194D01*
X110518Y1124135D01*
X110510Y1124081D01*
X110498Y1124044D01*
X110498Y1124041D01*
X110499Y1124004D01*
X110491Y1123950D01*
X110491Y1121410D01*
X110502Y1121345D01*
X110504Y1121279D01*
X110522Y1121236D01*
X110530Y1121189D01*
X110564Y1121132D01*
X110589Y1121072D01*
X110620Y1121037D01*
X110645Y1120996D01*
X110696Y1120955D01*
X110740Y1120906D01*
X110782Y1120884D01*
X110819Y1120855D01*
X110881Y1120834D01*
X110940Y1120803D01*
X110994Y1120795D01*
X111031Y1120783D01*
X111071Y1120784D01*
X111125Y1120776D01*
X114935Y1120776D01*
X115000Y1120787D01*
G37*
G36*
X78170Y1044587D02*
X78170Y1044587D01*
X78236Y1044589D01*
X78279Y1044607D01*
X78326Y1044615D01*
X78383Y1044649D01*
X78443Y1044674D01*
X78478Y1044705D01*
X78519Y1044730D01*
X78561Y1044781D01*
X78609Y1044825D01*
X78631Y1044867D01*
X78660Y1044904D01*
X78681Y1044966D01*
X78712Y1045025D01*
X78720Y1045079D01*
X78732Y1045116D01*
X78731Y1045156D01*
X78739Y1045210D01*
X78739Y1047750D01*
X78728Y1047815D01*
X78726Y1047881D01*
X78708Y1047924D01*
X78700Y1047971D01*
X78666Y1048028D01*
X78641Y1048088D01*
X78610Y1048123D01*
X78585Y1048164D01*
X78534Y1048206D01*
X78490Y1048254D01*
X78448Y1048276D01*
X78411Y1048305D01*
X78349Y1048326D01*
X78290Y1048357D01*
X78236Y1048365D01*
X78199Y1048377D01*
X78159Y1048376D01*
X78105Y1048384D01*
X74295Y1048384D01*
X74230Y1048373D01*
X74164Y1048371D01*
X74121Y1048353D01*
X74074Y1048345D01*
X74017Y1048311D01*
X73957Y1048286D01*
X73922Y1048255D01*
X73881Y1048230D01*
X73840Y1048179D01*
X73791Y1048135D01*
X73769Y1048093D01*
X73740Y1048056D01*
X73719Y1047994D01*
X73688Y1047935D01*
X73680Y1047881D01*
X73668Y1047844D01*
X73668Y1047841D01*
X73669Y1047804D01*
X73661Y1047750D01*
X73661Y1045210D01*
X73672Y1045145D01*
X73674Y1045079D01*
X73692Y1045036D01*
X73700Y1044989D01*
X73734Y1044932D01*
X73759Y1044872D01*
X73790Y1044837D01*
X73815Y1044796D01*
X73866Y1044755D01*
X73910Y1044706D01*
X73952Y1044684D01*
X73989Y1044655D01*
X74051Y1044634D01*
X74110Y1044603D01*
X74164Y1044595D01*
X74201Y1044583D01*
X74241Y1044584D01*
X74295Y1044576D01*
X78105Y1044576D01*
X78170Y1044587D01*
G37*
G36*
X85790Y1003947D02*
X85790Y1003947D01*
X85856Y1003949D01*
X85899Y1003967D01*
X85946Y1003975D01*
X86003Y1004009D01*
X86063Y1004034D01*
X86098Y1004065D01*
X86139Y1004090D01*
X86181Y1004141D01*
X86229Y1004185D01*
X86251Y1004227D01*
X86280Y1004264D01*
X86301Y1004326D01*
X86332Y1004385D01*
X86340Y1004439D01*
X86352Y1004476D01*
X86351Y1004516D01*
X86359Y1004570D01*
X86359Y1007110D01*
X86348Y1007175D01*
X86346Y1007241D01*
X86328Y1007284D01*
X86320Y1007331D01*
X86286Y1007388D01*
X86261Y1007448D01*
X86230Y1007483D01*
X86205Y1007524D01*
X86154Y1007566D01*
X86110Y1007614D01*
X86068Y1007636D01*
X86031Y1007665D01*
X85969Y1007686D01*
X85910Y1007717D01*
X85856Y1007725D01*
X85819Y1007737D01*
X85779Y1007736D01*
X85725Y1007744D01*
X81915Y1007744D01*
X81850Y1007733D01*
X81784Y1007731D01*
X81741Y1007713D01*
X81694Y1007705D01*
X81637Y1007671D01*
X81577Y1007646D01*
X81542Y1007615D01*
X81501Y1007590D01*
X81460Y1007539D01*
X81411Y1007495D01*
X81389Y1007453D01*
X81360Y1007416D01*
X81339Y1007354D01*
X81308Y1007295D01*
X81300Y1007241D01*
X81288Y1007204D01*
X81288Y1007201D01*
X81289Y1007164D01*
X81281Y1007110D01*
X81281Y1004570D01*
X81292Y1004505D01*
X81294Y1004439D01*
X81312Y1004396D01*
X81320Y1004349D01*
X81354Y1004292D01*
X81379Y1004232D01*
X81410Y1004197D01*
X81435Y1004156D01*
X81486Y1004115D01*
X81530Y1004066D01*
X81572Y1004044D01*
X81609Y1004015D01*
X81671Y1003994D01*
X81730Y1003963D01*
X81784Y1003955D01*
X81821Y1003943D01*
X81861Y1003944D01*
X81915Y1003936D01*
X85725Y1003936D01*
X85790Y1003947D01*
G37*
G36*
X95950Y1003947D02*
X95950Y1003947D01*
X96016Y1003949D01*
X96059Y1003967D01*
X96106Y1003975D01*
X96163Y1004009D01*
X96223Y1004034D01*
X96258Y1004065D01*
X96299Y1004090D01*
X96341Y1004141D01*
X96389Y1004185D01*
X96411Y1004227D01*
X96440Y1004264D01*
X96461Y1004326D01*
X96492Y1004385D01*
X96500Y1004439D01*
X96512Y1004476D01*
X96511Y1004516D01*
X96519Y1004570D01*
X96519Y1007110D01*
X96508Y1007175D01*
X96506Y1007241D01*
X96488Y1007284D01*
X96480Y1007331D01*
X96446Y1007388D01*
X96421Y1007448D01*
X96390Y1007483D01*
X96365Y1007524D01*
X96314Y1007566D01*
X96270Y1007614D01*
X96228Y1007636D01*
X96191Y1007665D01*
X96129Y1007686D01*
X96070Y1007717D01*
X96016Y1007725D01*
X95979Y1007737D01*
X95939Y1007736D01*
X95885Y1007744D01*
X92075Y1007744D01*
X92010Y1007733D01*
X91944Y1007731D01*
X91901Y1007713D01*
X91854Y1007705D01*
X91797Y1007671D01*
X91737Y1007646D01*
X91702Y1007615D01*
X91661Y1007590D01*
X91620Y1007539D01*
X91571Y1007495D01*
X91549Y1007453D01*
X91520Y1007416D01*
X91499Y1007354D01*
X91468Y1007295D01*
X91460Y1007241D01*
X91448Y1007204D01*
X91448Y1007201D01*
X91449Y1007164D01*
X91441Y1007110D01*
X91441Y1004570D01*
X91452Y1004505D01*
X91454Y1004439D01*
X91472Y1004396D01*
X91480Y1004349D01*
X91514Y1004292D01*
X91539Y1004232D01*
X91570Y1004197D01*
X91595Y1004156D01*
X91646Y1004115D01*
X91690Y1004066D01*
X91732Y1004044D01*
X91769Y1004015D01*
X91831Y1003994D01*
X91890Y1003963D01*
X91944Y1003955D01*
X91981Y1003943D01*
X92021Y1003944D01*
X92075Y1003936D01*
X95885Y1003936D01*
X95950Y1003947D01*
G37*
G36*
X115000Y861707D02*
X115000Y861707D01*
X115066Y861709D01*
X115109Y861727D01*
X115156Y861735D01*
X115213Y861769D01*
X115273Y861794D01*
X115308Y861825D01*
X115349Y861850D01*
X115391Y861901D01*
X115439Y861945D01*
X115461Y861987D01*
X115490Y862024D01*
X115511Y862086D01*
X115542Y862145D01*
X115550Y862199D01*
X115562Y862236D01*
X115561Y862276D01*
X115569Y862330D01*
X115569Y864870D01*
X115558Y864935D01*
X115556Y865001D01*
X115538Y865044D01*
X115530Y865091D01*
X115496Y865148D01*
X115471Y865208D01*
X115440Y865243D01*
X115415Y865284D01*
X115364Y865326D01*
X115320Y865374D01*
X115278Y865396D01*
X115241Y865425D01*
X115179Y865446D01*
X115120Y865477D01*
X115066Y865485D01*
X115029Y865497D01*
X114989Y865496D01*
X114935Y865504D01*
X111125Y865504D01*
X111060Y865493D01*
X110994Y865491D01*
X110951Y865473D01*
X110904Y865465D01*
X110847Y865431D01*
X110787Y865406D01*
X110752Y865375D01*
X110711Y865350D01*
X110670Y865299D01*
X110621Y865255D01*
X110599Y865213D01*
X110570Y865176D01*
X110549Y865114D01*
X110518Y865055D01*
X110510Y865001D01*
X110498Y864964D01*
X110498Y864961D01*
X110499Y864924D01*
X110491Y864870D01*
X110491Y862330D01*
X110502Y862265D01*
X110504Y862199D01*
X110522Y862156D01*
X110530Y862109D01*
X110564Y862052D01*
X110589Y861992D01*
X110620Y861957D01*
X110645Y861916D01*
X110696Y861875D01*
X110740Y861826D01*
X110782Y861804D01*
X110819Y861775D01*
X110881Y861754D01*
X110940Y861723D01*
X110994Y861715D01*
X111031Y861703D01*
X111071Y861704D01*
X111125Y861696D01*
X114935Y861696D01*
X115000Y861707D01*
G37*
G36*
X78170Y785507D02*
X78170Y785507D01*
X78236Y785509D01*
X78279Y785527D01*
X78326Y785535D01*
X78383Y785569D01*
X78443Y785594D01*
X78478Y785625D01*
X78519Y785650D01*
X78561Y785701D01*
X78609Y785745D01*
X78631Y785787D01*
X78660Y785824D01*
X78681Y785886D01*
X78712Y785945D01*
X78720Y785999D01*
X78732Y786036D01*
X78731Y786076D01*
X78739Y786130D01*
X78739Y788670D01*
X78728Y788735D01*
X78726Y788801D01*
X78708Y788844D01*
X78700Y788891D01*
X78666Y788948D01*
X78641Y789008D01*
X78610Y789043D01*
X78585Y789084D01*
X78534Y789126D01*
X78490Y789174D01*
X78448Y789196D01*
X78411Y789225D01*
X78349Y789246D01*
X78290Y789277D01*
X78236Y789285D01*
X78199Y789297D01*
X78159Y789296D01*
X78105Y789304D01*
X74295Y789304D01*
X74230Y789293D01*
X74164Y789291D01*
X74121Y789273D01*
X74074Y789265D01*
X74017Y789231D01*
X73957Y789206D01*
X73922Y789175D01*
X73881Y789150D01*
X73840Y789099D01*
X73791Y789055D01*
X73769Y789013D01*
X73740Y788976D01*
X73719Y788914D01*
X73688Y788855D01*
X73680Y788801D01*
X73668Y788764D01*
X73668Y788761D01*
X73669Y788724D01*
X73661Y788670D01*
X73661Y786130D01*
X73672Y786065D01*
X73674Y785999D01*
X73692Y785956D01*
X73700Y785909D01*
X73734Y785852D01*
X73759Y785792D01*
X73790Y785757D01*
X73815Y785716D01*
X73866Y785675D01*
X73910Y785626D01*
X73952Y785604D01*
X73989Y785575D01*
X74051Y785554D01*
X74110Y785523D01*
X74164Y785515D01*
X74201Y785503D01*
X74241Y785504D01*
X74295Y785496D01*
X78105Y785496D01*
X78170Y785507D01*
G37*
G36*
X95950Y744867D02*
X95950Y744867D01*
X96016Y744869D01*
X96059Y744887D01*
X96106Y744895D01*
X96163Y744929D01*
X96223Y744954D01*
X96258Y744985D01*
X96299Y745010D01*
X96341Y745061D01*
X96389Y745105D01*
X96411Y745147D01*
X96440Y745184D01*
X96461Y745246D01*
X96492Y745305D01*
X96500Y745359D01*
X96512Y745396D01*
X96511Y745436D01*
X96519Y745490D01*
X96519Y748030D01*
X96508Y748095D01*
X96506Y748161D01*
X96488Y748204D01*
X96480Y748251D01*
X96446Y748308D01*
X96421Y748368D01*
X96390Y748403D01*
X96365Y748444D01*
X96314Y748486D01*
X96270Y748534D01*
X96228Y748556D01*
X96191Y748585D01*
X96129Y748606D01*
X96070Y748637D01*
X96016Y748645D01*
X95979Y748657D01*
X95939Y748656D01*
X95885Y748664D01*
X92075Y748664D01*
X92010Y748653D01*
X91944Y748651D01*
X91901Y748633D01*
X91854Y748625D01*
X91797Y748591D01*
X91737Y748566D01*
X91702Y748535D01*
X91661Y748510D01*
X91620Y748459D01*
X91571Y748415D01*
X91549Y748373D01*
X91520Y748336D01*
X91499Y748274D01*
X91468Y748215D01*
X91460Y748161D01*
X91448Y748124D01*
X91448Y748121D01*
X91449Y748084D01*
X91441Y748030D01*
X91441Y745490D01*
X91452Y745425D01*
X91454Y745359D01*
X91472Y745316D01*
X91480Y745269D01*
X91514Y745212D01*
X91539Y745152D01*
X91570Y745117D01*
X91595Y745076D01*
X91646Y745035D01*
X91690Y744986D01*
X91732Y744964D01*
X91769Y744935D01*
X91831Y744914D01*
X91890Y744883D01*
X91944Y744875D01*
X91981Y744863D01*
X92021Y744864D01*
X92075Y744856D01*
X95885Y744856D01*
X95950Y744867D01*
G37*
G36*
X85790Y744867D02*
X85790Y744867D01*
X85856Y744869D01*
X85899Y744887D01*
X85946Y744895D01*
X86003Y744929D01*
X86063Y744954D01*
X86098Y744985D01*
X86139Y745010D01*
X86181Y745061D01*
X86229Y745105D01*
X86251Y745147D01*
X86280Y745184D01*
X86301Y745246D01*
X86332Y745305D01*
X86340Y745359D01*
X86352Y745396D01*
X86351Y745436D01*
X86359Y745490D01*
X86359Y748030D01*
X86348Y748095D01*
X86346Y748161D01*
X86328Y748204D01*
X86320Y748251D01*
X86286Y748308D01*
X86261Y748368D01*
X86230Y748403D01*
X86205Y748444D01*
X86154Y748486D01*
X86110Y748534D01*
X86068Y748556D01*
X86031Y748585D01*
X85969Y748606D01*
X85910Y748637D01*
X85856Y748645D01*
X85819Y748657D01*
X85779Y748656D01*
X85725Y748664D01*
X81915Y748664D01*
X81850Y748653D01*
X81784Y748651D01*
X81741Y748633D01*
X81694Y748625D01*
X81637Y748591D01*
X81577Y748566D01*
X81542Y748535D01*
X81501Y748510D01*
X81460Y748459D01*
X81411Y748415D01*
X81389Y748373D01*
X81360Y748336D01*
X81339Y748274D01*
X81308Y748215D01*
X81300Y748161D01*
X81288Y748124D01*
X81288Y748121D01*
X81289Y748084D01*
X81281Y748030D01*
X81281Y745490D01*
X81292Y745425D01*
X81294Y745359D01*
X81312Y745316D01*
X81320Y745269D01*
X81354Y745212D01*
X81379Y745152D01*
X81410Y745117D01*
X81435Y745076D01*
X81486Y745035D01*
X81530Y744986D01*
X81572Y744964D01*
X81609Y744935D01*
X81671Y744914D01*
X81730Y744883D01*
X81784Y744875D01*
X81821Y744863D01*
X81861Y744864D01*
X81915Y744856D01*
X85725Y744856D01*
X85790Y744867D01*
G37*
G36*
X115000Y602627D02*
X115000Y602627D01*
X115066Y602629D01*
X115109Y602647D01*
X115156Y602655D01*
X115213Y602689D01*
X115273Y602714D01*
X115308Y602745D01*
X115349Y602770D01*
X115391Y602821D01*
X115439Y602865D01*
X115461Y602907D01*
X115490Y602944D01*
X115511Y603006D01*
X115542Y603065D01*
X115550Y603119D01*
X115562Y603156D01*
X115561Y603196D01*
X115569Y603250D01*
X115569Y605790D01*
X115558Y605855D01*
X115556Y605921D01*
X115538Y605964D01*
X115530Y606011D01*
X115496Y606068D01*
X115471Y606128D01*
X115440Y606163D01*
X115415Y606204D01*
X115364Y606246D01*
X115320Y606294D01*
X115278Y606316D01*
X115241Y606345D01*
X115179Y606366D01*
X115120Y606397D01*
X115066Y606405D01*
X115029Y606417D01*
X114989Y606416D01*
X114935Y606424D01*
X111125Y606424D01*
X111060Y606413D01*
X110994Y606411D01*
X110951Y606393D01*
X110904Y606385D01*
X110847Y606351D01*
X110787Y606326D01*
X110752Y606295D01*
X110711Y606270D01*
X110670Y606219D01*
X110621Y606175D01*
X110599Y606133D01*
X110570Y606096D01*
X110549Y606034D01*
X110518Y605975D01*
X110510Y605921D01*
X110498Y605884D01*
X110498Y605881D01*
X110499Y605844D01*
X110491Y605790D01*
X110491Y603250D01*
X110502Y603185D01*
X110504Y603119D01*
X110522Y603076D01*
X110530Y603029D01*
X110564Y602972D01*
X110589Y602912D01*
X110620Y602877D01*
X110645Y602836D01*
X110696Y602795D01*
X110740Y602746D01*
X110782Y602724D01*
X110819Y602695D01*
X110881Y602674D01*
X110940Y602643D01*
X110994Y602635D01*
X111031Y602623D01*
X111071Y602624D01*
X111125Y602616D01*
X114935Y602616D01*
X115000Y602627D01*
G37*
G36*
X78170Y526427D02*
X78170Y526427D01*
X78236Y526429D01*
X78279Y526447D01*
X78326Y526455D01*
X78383Y526489D01*
X78443Y526514D01*
X78478Y526545D01*
X78519Y526570D01*
X78561Y526621D01*
X78609Y526665D01*
X78631Y526707D01*
X78660Y526744D01*
X78681Y526806D01*
X78712Y526865D01*
X78720Y526919D01*
X78732Y526956D01*
X78731Y526996D01*
X78739Y527050D01*
X78739Y529590D01*
X78728Y529655D01*
X78726Y529721D01*
X78708Y529764D01*
X78700Y529811D01*
X78666Y529868D01*
X78641Y529928D01*
X78610Y529963D01*
X78585Y530004D01*
X78534Y530046D01*
X78490Y530094D01*
X78448Y530116D01*
X78411Y530145D01*
X78349Y530166D01*
X78290Y530197D01*
X78236Y530205D01*
X78199Y530217D01*
X78159Y530216D01*
X78105Y530224D01*
X74295Y530224D01*
X74230Y530213D01*
X74164Y530211D01*
X74121Y530193D01*
X74074Y530185D01*
X74017Y530151D01*
X73957Y530126D01*
X73922Y530095D01*
X73881Y530070D01*
X73840Y530019D01*
X73791Y529975D01*
X73769Y529933D01*
X73740Y529896D01*
X73719Y529834D01*
X73688Y529775D01*
X73680Y529721D01*
X73668Y529684D01*
X73668Y529681D01*
X73669Y529644D01*
X73661Y529590D01*
X73661Y527050D01*
X73672Y526985D01*
X73674Y526919D01*
X73692Y526876D01*
X73700Y526829D01*
X73734Y526772D01*
X73759Y526712D01*
X73790Y526677D01*
X73815Y526636D01*
X73866Y526595D01*
X73910Y526546D01*
X73952Y526524D01*
X73989Y526495D01*
X74051Y526474D01*
X74110Y526443D01*
X74164Y526435D01*
X74201Y526423D01*
X74241Y526424D01*
X74295Y526416D01*
X78105Y526416D01*
X78170Y526427D01*
G37*
G36*
X85790Y485787D02*
X85790Y485787D01*
X85856Y485789D01*
X85899Y485807D01*
X85946Y485815D01*
X86003Y485849D01*
X86063Y485874D01*
X86098Y485905D01*
X86139Y485930D01*
X86181Y485981D01*
X86229Y486025D01*
X86251Y486067D01*
X86280Y486104D01*
X86301Y486166D01*
X86332Y486225D01*
X86340Y486279D01*
X86352Y486316D01*
X86351Y486356D01*
X86359Y486410D01*
X86359Y488950D01*
X86348Y489015D01*
X86346Y489081D01*
X86328Y489124D01*
X86320Y489171D01*
X86286Y489228D01*
X86261Y489288D01*
X86230Y489323D01*
X86205Y489364D01*
X86154Y489406D01*
X86110Y489454D01*
X86068Y489476D01*
X86031Y489505D01*
X85969Y489526D01*
X85910Y489557D01*
X85856Y489565D01*
X85819Y489577D01*
X85779Y489576D01*
X85725Y489584D01*
X81915Y489584D01*
X81850Y489573D01*
X81784Y489571D01*
X81741Y489553D01*
X81694Y489545D01*
X81637Y489511D01*
X81577Y489486D01*
X81542Y489455D01*
X81501Y489430D01*
X81460Y489379D01*
X81411Y489335D01*
X81389Y489293D01*
X81360Y489256D01*
X81339Y489194D01*
X81308Y489135D01*
X81300Y489081D01*
X81288Y489044D01*
X81288Y489041D01*
X81289Y489004D01*
X81281Y488950D01*
X81281Y486410D01*
X81292Y486345D01*
X81294Y486279D01*
X81312Y486236D01*
X81320Y486189D01*
X81354Y486132D01*
X81379Y486072D01*
X81410Y486037D01*
X81435Y485996D01*
X81486Y485955D01*
X81530Y485906D01*
X81572Y485884D01*
X81609Y485855D01*
X81671Y485834D01*
X81730Y485803D01*
X81784Y485795D01*
X81821Y485783D01*
X81861Y485784D01*
X81915Y485776D01*
X85725Y485776D01*
X85790Y485787D01*
G37*
G36*
X95950Y485787D02*
X95950Y485787D01*
X96016Y485789D01*
X96059Y485807D01*
X96106Y485815D01*
X96163Y485849D01*
X96223Y485874D01*
X96258Y485905D01*
X96299Y485930D01*
X96341Y485981D01*
X96389Y486025D01*
X96411Y486067D01*
X96440Y486104D01*
X96461Y486166D01*
X96492Y486225D01*
X96500Y486279D01*
X96512Y486316D01*
X96511Y486356D01*
X96519Y486410D01*
X96519Y488950D01*
X96508Y489015D01*
X96506Y489081D01*
X96488Y489124D01*
X96480Y489171D01*
X96446Y489228D01*
X96421Y489288D01*
X96390Y489323D01*
X96365Y489364D01*
X96314Y489406D01*
X96270Y489454D01*
X96228Y489476D01*
X96191Y489505D01*
X96129Y489526D01*
X96070Y489557D01*
X96016Y489565D01*
X95979Y489577D01*
X95939Y489576D01*
X95885Y489584D01*
X92075Y489584D01*
X92010Y489573D01*
X91944Y489571D01*
X91901Y489553D01*
X91854Y489545D01*
X91797Y489511D01*
X91737Y489486D01*
X91702Y489455D01*
X91661Y489430D01*
X91620Y489379D01*
X91571Y489335D01*
X91549Y489293D01*
X91520Y489256D01*
X91499Y489194D01*
X91468Y489135D01*
X91460Y489081D01*
X91448Y489044D01*
X91448Y489041D01*
X91449Y489004D01*
X91441Y488950D01*
X91441Y486410D01*
X91452Y486345D01*
X91454Y486279D01*
X91472Y486236D01*
X91480Y486189D01*
X91514Y486132D01*
X91539Y486072D01*
X91570Y486037D01*
X91595Y485996D01*
X91646Y485955D01*
X91690Y485906D01*
X91732Y485884D01*
X91769Y485855D01*
X91831Y485834D01*
X91890Y485803D01*
X91944Y485795D01*
X91981Y485783D01*
X92021Y485784D01*
X92075Y485776D01*
X95885Y485776D01*
X95950Y485787D01*
G37*
G36*
X115000Y343547D02*
X115000Y343547D01*
X115066Y343549D01*
X115109Y343567D01*
X115156Y343575D01*
X115213Y343609D01*
X115273Y343634D01*
X115308Y343665D01*
X115349Y343690D01*
X115391Y343741D01*
X115439Y343785D01*
X115461Y343827D01*
X115490Y343864D01*
X115511Y343926D01*
X115542Y343985D01*
X115550Y344039D01*
X115562Y344076D01*
X115561Y344116D01*
X115569Y344170D01*
X115569Y346710D01*
X115558Y346775D01*
X115556Y346841D01*
X115538Y346884D01*
X115530Y346931D01*
X115496Y346988D01*
X115471Y347048D01*
X115440Y347083D01*
X115415Y347124D01*
X115364Y347166D01*
X115320Y347214D01*
X115278Y347236D01*
X115241Y347265D01*
X115179Y347286D01*
X115120Y347317D01*
X115066Y347325D01*
X115029Y347337D01*
X114989Y347336D01*
X114935Y347344D01*
X111125Y347344D01*
X111060Y347333D01*
X110994Y347331D01*
X110951Y347313D01*
X110904Y347305D01*
X110847Y347271D01*
X110787Y347246D01*
X110752Y347215D01*
X110711Y347190D01*
X110670Y347139D01*
X110621Y347095D01*
X110599Y347053D01*
X110570Y347016D01*
X110549Y346954D01*
X110518Y346895D01*
X110510Y346841D01*
X110498Y346804D01*
X110498Y346801D01*
X110499Y346764D01*
X110491Y346710D01*
X110491Y344170D01*
X110502Y344105D01*
X110504Y344039D01*
X110522Y343996D01*
X110530Y343949D01*
X110564Y343892D01*
X110589Y343832D01*
X110620Y343797D01*
X110645Y343756D01*
X110696Y343715D01*
X110740Y343666D01*
X110782Y343644D01*
X110819Y343615D01*
X110881Y343594D01*
X110940Y343563D01*
X110994Y343555D01*
X111031Y343543D01*
X111071Y343544D01*
X111125Y343536D01*
X114935Y343536D01*
X115000Y343547D01*
G37*
G36*
X78170Y267347D02*
X78170Y267347D01*
X78236Y267349D01*
X78279Y267367D01*
X78326Y267375D01*
X78383Y267409D01*
X78443Y267434D01*
X78478Y267465D01*
X78519Y267490D01*
X78561Y267541D01*
X78609Y267585D01*
X78631Y267627D01*
X78660Y267664D01*
X78681Y267726D01*
X78712Y267785D01*
X78720Y267839D01*
X78732Y267876D01*
X78731Y267916D01*
X78739Y267970D01*
X78739Y270510D01*
X78728Y270575D01*
X78726Y270641D01*
X78708Y270684D01*
X78700Y270731D01*
X78666Y270788D01*
X78641Y270848D01*
X78610Y270883D01*
X78585Y270924D01*
X78534Y270966D01*
X78490Y271014D01*
X78448Y271036D01*
X78411Y271065D01*
X78349Y271086D01*
X78290Y271117D01*
X78236Y271125D01*
X78199Y271137D01*
X78159Y271136D01*
X78105Y271144D01*
X74295Y271144D01*
X74230Y271133D01*
X74164Y271131D01*
X74121Y271113D01*
X74074Y271105D01*
X74017Y271071D01*
X73957Y271046D01*
X73922Y271015D01*
X73881Y270990D01*
X73840Y270939D01*
X73791Y270895D01*
X73769Y270853D01*
X73740Y270816D01*
X73719Y270754D01*
X73688Y270695D01*
X73680Y270641D01*
X73668Y270604D01*
X73668Y270601D01*
X73669Y270564D01*
X73661Y270510D01*
X73661Y267970D01*
X73672Y267905D01*
X73674Y267839D01*
X73692Y267796D01*
X73700Y267749D01*
X73734Y267692D01*
X73759Y267632D01*
X73790Y267597D01*
X73815Y267556D01*
X73866Y267515D01*
X73910Y267466D01*
X73952Y267444D01*
X73989Y267415D01*
X74051Y267394D01*
X74110Y267363D01*
X74164Y267355D01*
X74201Y267343D01*
X74241Y267344D01*
X74295Y267336D01*
X78105Y267336D01*
X78170Y267347D01*
G37*
G36*
X95950Y226707D02*
X95950Y226707D01*
X96016Y226709D01*
X96059Y226727D01*
X96106Y226735D01*
X96163Y226769D01*
X96223Y226794D01*
X96258Y226825D01*
X96299Y226850D01*
X96341Y226901D01*
X96389Y226945D01*
X96411Y226987D01*
X96440Y227024D01*
X96461Y227086D01*
X96492Y227145D01*
X96500Y227199D01*
X96512Y227236D01*
X96511Y227276D01*
X96519Y227330D01*
X96519Y229870D01*
X96508Y229935D01*
X96506Y230001D01*
X96488Y230044D01*
X96480Y230091D01*
X96446Y230148D01*
X96421Y230208D01*
X96390Y230243D01*
X96365Y230284D01*
X96314Y230326D01*
X96270Y230374D01*
X96228Y230396D01*
X96191Y230425D01*
X96129Y230446D01*
X96070Y230477D01*
X96016Y230485D01*
X95979Y230497D01*
X95939Y230496D01*
X95885Y230504D01*
X92075Y230504D01*
X92010Y230493D01*
X91944Y230491D01*
X91901Y230473D01*
X91854Y230465D01*
X91797Y230431D01*
X91737Y230406D01*
X91702Y230375D01*
X91661Y230350D01*
X91620Y230299D01*
X91571Y230255D01*
X91549Y230213D01*
X91520Y230176D01*
X91499Y230114D01*
X91468Y230055D01*
X91460Y230001D01*
X91448Y229964D01*
X91448Y229961D01*
X91449Y229924D01*
X91441Y229870D01*
X91441Y227330D01*
X91452Y227265D01*
X91454Y227199D01*
X91472Y227156D01*
X91480Y227109D01*
X91514Y227052D01*
X91539Y226992D01*
X91570Y226957D01*
X91595Y226916D01*
X91646Y226875D01*
X91690Y226826D01*
X91732Y226804D01*
X91769Y226775D01*
X91831Y226754D01*
X91890Y226723D01*
X91944Y226715D01*
X91981Y226703D01*
X92021Y226704D01*
X92075Y226696D01*
X95885Y226696D01*
X95950Y226707D01*
G37*
G36*
X85790Y226707D02*
X85790Y226707D01*
X85856Y226709D01*
X85899Y226727D01*
X85946Y226735D01*
X86003Y226769D01*
X86063Y226794D01*
X86098Y226825D01*
X86139Y226850D01*
X86181Y226901D01*
X86229Y226945D01*
X86251Y226987D01*
X86280Y227024D01*
X86301Y227086D01*
X86332Y227145D01*
X86340Y227199D01*
X86352Y227236D01*
X86351Y227276D01*
X86359Y227330D01*
X86359Y229870D01*
X86348Y229935D01*
X86346Y230001D01*
X86328Y230044D01*
X86320Y230091D01*
X86286Y230148D01*
X86261Y230208D01*
X86230Y230243D01*
X86205Y230284D01*
X86154Y230326D01*
X86110Y230374D01*
X86068Y230396D01*
X86031Y230425D01*
X85969Y230446D01*
X85910Y230477D01*
X85856Y230485D01*
X85819Y230497D01*
X85779Y230496D01*
X85725Y230504D01*
X81915Y230504D01*
X81850Y230493D01*
X81784Y230491D01*
X81741Y230473D01*
X81694Y230465D01*
X81637Y230431D01*
X81577Y230406D01*
X81542Y230375D01*
X81501Y230350D01*
X81460Y230299D01*
X81411Y230255D01*
X81389Y230213D01*
X81360Y230176D01*
X81339Y230114D01*
X81308Y230055D01*
X81300Y230001D01*
X81288Y229964D01*
X81288Y229961D01*
X81289Y229924D01*
X81281Y229870D01*
X81281Y227330D01*
X81292Y227265D01*
X81294Y227199D01*
X81312Y227156D01*
X81320Y227109D01*
X81354Y227052D01*
X81379Y226992D01*
X81410Y226957D01*
X81435Y226916D01*
X81486Y226875D01*
X81530Y226826D01*
X81572Y226804D01*
X81609Y226775D01*
X81671Y226754D01*
X81730Y226723D01*
X81784Y226715D01*
X81821Y226703D01*
X81861Y226704D01*
X81915Y226696D01*
X85725Y226696D01*
X85790Y226707D01*
G37*
G36*
X115000Y84467D02*
X115000Y84467D01*
X115066Y84469D01*
X115109Y84487D01*
X115156Y84495D01*
X115213Y84529D01*
X115273Y84554D01*
X115308Y84585D01*
X115349Y84610D01*
X115391Y84661D01*
X115439Y84705D01*
X115461Y84747D01*
X115490Y84784D01*
X115511Y84846D01*
X115542Y84905D01*
X115550Y84959D01*
X115562Y84996D01*
X115561Y85036D01*
X115569Y85090D01*
X115569Y87630D01*
X115558Y87695D01*
X115556Y87761D01*
X115538Y87804D01*
X115530Y87851D01*
X115496Y87908D01*
X115471Y87968D01*
X115440Y88003D01*
X115415Y88044D01*
X115364Y88086D01*
X115320Y88134D01*
X115278Y88156D01*
X115241Y88185D01*
X115179Y88206D01*
X115120Y88237D01*
X115066Y88245D01*
X115029Y88257D01*
X114989Y88256D01*
X114935Y88264D01*
X111125Y88264D01*
X111060Y88253D01*
X110994Y88251D01*
X110951Y88233D01*
X110904Y88225D01*
X110847Y88191D01*
X110787Y88166D01*
X110752Y88135D01*
X110711Y88110D01*
X110670Y88059D01*
X110621Y88015D01*
X110599Y87973D01*
X110570Y87936D01*
X110549Y87874D01*
X110518Y87815D01*
X110510Y87761D01*
X110498Y87724D01*
X110498Y87721D01*
X110499Y87684D01*
X110491Y87630D01*
X110491Y85090D01*
X110502Y85025D01*
X110504Y84959D01*
X110522Y84916D01*
X110530Y84869D01*
X110564Y84812D01*
X110589Y84752D01*
X110620Y84717D01*
X110645Y84676D01*
X110696Y84635D01*
X110740Y84586D01*
X110782Y84564D01*
X110819Y84535D01*
X110881Y84514D01*
X110940Y84483D01*
X110994Y84475D01*
X111031Y84463D01*
X111071Y84464D01*
X111125Y84456D01*
X114935Y84456D01*
X115000Y84467D01*
G37*
G36*
X78170Y8267D02*
X78170Y8267D01*
X78236Y8269D01*
X78279Y8287D01*
X78326Y8295D01*
X78383Y8329D01*
X78443Y8354D01*
X78478Y8385D01*
X78519Y8410D01*
X78561Y8461D01*
X78609Y8505D01*
X78631Y8547D01*
X78660Y8584D01*
X78681Y8646D01*
X78712Y8705D01*
X78720Y8759D01*
X78732Y8796D01*
X78731Y8836D01*
X78739Y8890D01*
X78739Y11430D01*
X78728Y11495D01*
X78726Y11561D01*
X78708Y11604D01*
X78700Y11651D01*
X78666Y11708D01*
X78641Y11768D01*
X78610Y11803D01*
X78585Y11844D01*
X78534Y11886D01*
X78490Y11934D01*
X78448Y11956D01*
X78411Y11985D01*
X78349Y12006D01*
X78290Y12037D01*
X78236Y12045D01*
X78199Y12057D01*
X78159Y12056D01*
X78105Y12064D01*
X74295Y12064D01*
X74230Y12053D01*
X74164Y12051D01*
X74121Y12033D01*
X74074Y12025D01*
X74017Y11991D01*
X73957Y11966D01*
X73922Y11935D01*
X73881Y11910D01*
X73840Y11859D01*
X73791Y11815D01*
X73769Y11773D01*
X73740Y11736D01*
X73719Y11674D01*
X73688Y11615D01*
X73680Y11561D01*
X73668Y11524D01*
X73668Y11521D01*
X73669Y11484D01*
X73661Y11430D01*
X73661Y8890D01*
X73672Y8825D01*
X73674Y8759D01*
X73692Y8716D01*
X73700Y8669D01*
X73734Y8612D01*
X73759Y8552D01*
X73790Y8517D01*
X73815Y8476D01*
X73866Y8435D01*
X73910Y8386D01*
X73952Y8364D01*
X73989Y8335D01*
X74051Y8314D01*
X74110Y8283D01*
X74164Y8275D01*
X74201Y8263D01*
X74241Y8264D01*
X74295Y8256D01*
X78105Y8256D01*
X78170Y8267D01*
G37*
D10*
X25400Y25400D03*
X25400Y228600D03*
D11*
X7620Y7620D03*
X905510Y245110D03*
D10*
X889000Y228600D03*
X889000Y25400D03*
D12*
X152400Y152400D03*
X152400Y127000D03*
X152400Y101600D03*
X177800Y152400D03*
X177800Y127000D03*
X177800Y101600D03*
D13*
X229987Y170952D02*
X235341Y170952D01*
X235341Y159248D01*
X229987Y159248D01*
X229987Y170952D01*
X229987Y161642D02*
X235341Y161642D01*
X235341Y164036D02*
X229987Y164036D01*
X229987Y166430D02*
X235341Y166430D01*
X235341Y168824D02*
X229987Y168824D01*
X227213Y170952D02*
X221859Y170952D01*
X227213Y170952D02*
X227213Y159248D01*
X221859Y159248D01*
X221859Y170952D01*
X221859Y161642D02*
X227213Y161642D01*
X227213Y164036D02*
X221859Y164036D01*
X221859Y166430D02*
X227213Y166430D01*
X227213Y168824D02*
X221859Y168824D01*
X100340Y80508D02*
X94732Y80508D01*
X94732Y92212D01*
X100340Y92212D01*
X100340Y80508D01*
X100340Y82902D02*
X94732Y82902D01*
X94732Y85296D02*
X100340Y85296D01*
X100340Y87690D02*
X94732Y87690D01*
X94732Y90084D02*
X100340Y90084D01*
X105146Y80508D02*
X110754Y80508D01*
X105146Y80508D02*
X105146Y92212D01*
X110754Y92212D01*
X110754Y80508D01*
X110754Y82902D02*
X105146Y82902D01*
X105146Y85296D02*
X110754Y85296D01*
X110754Y87690D02*
X105146Y87690D01*
X105146Y90084D02*
X110754Y90084D01*
X115560Y80508D02*
X121168Y80508D01*
X115560Y80508D02*
X115560Y92212D01*
X121168Y92212D01*
X121168Y80508D01*
X121168Y82902D02*
X115560Y82902D01*
X115560Y85296D02*
X121168Y85296D01*
X121168Y87690D02*
X115560Y87690D01*
X115560Y90084D02*
X121168Y90084D01*
D14*
X12700Y88900D03*
X12700Y63500D03*
X901700Y165100D03*
X901700Y139700D03*
X901700Y114300D03*
X901700Y88900D03*
D13*
X73797Y4308D02*
X68189Y4308D01*
X68189Y16012D01*
X73797Y16012D01*
X73797Y4308D01*
X73797Y6702D02*
X68189Y6702D01*
X68189Y9096D02*
X73797Y9096D01*
X73797Y11490D02*
X68189Y11490D01*
X68189Y13884D02*
X73797Y13884D01*
X78603Y4308D02*
X84211Y4308D01*
X78603Y4308D02*
X78603Y16012D01*
X84211Y16012D01*
X84211Y4308D01*
X84211Y6702D02*
X78603Y6702D01*
X78603Y9096D02*
X84211Y9096D01*
X84211Y11490D02*
X78603Y11490D01*
X78603Y13884D02*
X84211Y13884D01*
X96510Y234452D02*
X102118Y234452D01*
X102118Y222748D01*
X96510Y222748D01*
X96510Y234452D01*
X96510Y225142D02*
X102118Y225142D01*
X102118Y227536D02*
X96510Y227536D01*
X96510Y229930D02*
X102118Y229930D01*
X102118Y232324D02*
X96510Y232324D01*
X91704Y234452D02*
X86096Y234452D01*
X91704Y234452D02*
X91704Y222748D01*
X86096Y222748D01*
X86096Y234452D01*
X86096Y225142D02*
X91704Y225142D01*
X91704Y227536D02*
X86096Y227536D01*
X86096Y229930D02*
X91704Y229930D01*
X91704Y232324D02*
X86096Y232324D01*
X81290Y234452D02*
X75682Y234452D01*
X81290Y234452D02*
X81290Y222748D01*
X75682Y222748D01*
X75682Y234452D01*
X75682Y225142D02*
X81290Y225142D01*
X81290Y227536D02*
X75682Y227536D01*
X75682Y229930D02*
X81290Y229930D01*
X81290Y232324D02*
X75682Y232324D01*
D14*
X12700Y114300D03*
X12700Y139700D03*
X12700Y165100D03*
X12700Y190500D03*
D10*
X685800Y228600D03*
X685800Y25400D03*
X228600Y25400D03*
X228600Y228600D03*
X25400Y284480D03*
X25400Y487680D03*
D11*
X7620Y266700D03*
X905510Y504190D03*
D10*
X889000Y487680D03*
X889000Y284480D03*
D12*
X152400Y411480D03*
X152400Y386080D03*
X152400Y360680D03*
X177800Y411480D03*
X177800Y386080D03*
X177800Y360680D03*
D13*
X229987Y430032D02*
X235341Y430032D01*
X235341Y418328D01*
X229987Y418328D01*
X229987Y430032D01*
X229987Y420722D02*
X235341Y420722D01*
X235341Y423116D02*
X229987Y423116D01*
X229987Y425510D02*
X235341Y425510D01*
X235341Y427904D02*
X229987Y427904D01*
X227213Y430032D02*
X221859Y430032D01*
X227213Y430032D02*
X227213Y418328D01*
X221859Y418328D01*
X221859Y430032D01*
X221859Y420722D02*
X227213Y420722D01*
X227213Y423116D02*
X221859Y423116D01*
X221859Y425510D02*
X227213Y425510D01*
X227213Y427904D02*
X221859Y427904D01*
X100340Y339588D02*
X94732Y339588D01*
X94732Y351292D01*
X100340Y351292D01*
X100340Y339588D01*
X100340Y341982D02*
X94732Y341982D01*
X94732Y344376D02*
X100340Y344376D01*
X100340Y346770D02*
X94732Y346770D01*
X94732Y349164D02*
X100340Y349164D01*
X105146Y339588D02*
X110754Y339588D01*
X105146Y339588D02*
X105146Y351292D01*
X110754Y351292D01*
X110754Y339588D01*
X110754Y341982D02*
X105146Y341982D01*
X105146Y344376D02*
X110754Y344376D01*
X110754Y346770D02*
X105146Y346770D01*
X105146Y349164D02*
X110754Y349164D01*
X115560Y339588D02*
X121168Y339588D01*
X115560Y339588D02*
X115560Y351292D01*
X121168Y351292D01*
X121168Y339588D01*
X121168Y341982D02*
X115560Y341982D01*
X115560Y344376D02*
X121168Y344376D01*
X121168Y346770D02*
X115560Y346770D01*
X115560Y349164D02*
X121168Y349164D01*
D14*
X12700Y347980D03*
X12700Y322580D03*
X901700Y424180D03*
X901700Y398780D03*
X901700Y373380D03*
X901700Y347980D03*
D13*
X73797Y263388D02*
X68189Y263388D01*
X68189Y275092D01*
X73797Y275092D01*
X73797Y263388D01*
X73797Y265782D02*
X68189Y265782D01*
X68189Y268176D02*
X73797Y268176D01*
X73797Y270570D02*
X68189Y270570D01*
X68189Y272964D02*
X73797Y272964D01*
X78603Y263388D02*
X84211Y263388D01*
X78603Y263388D02*
X78603Y275092D01*
X84211Y275092D01*
X84211Y263388D01*
X84211Y265782D02*
X78603Y265782D01*
X78603Y268176D02*
X84211Y268176D01*
X84211Y270570D02*
X78603Y270570D01*
X78603Y272964D02*
X84211Y272964D01*
X96510Y493532D02*
X102118Y493532D01*
X102118Y481828D01*
X96510Y481828D01*
X96510Y493532D01*
X96510Y484222D02*
X102118Y484222D01*
X102118Y486616D02*
X96510Y486616D01*
X96510Y489010D02*
X102118Y489010D01*
X102118Y491404D02*
X96510Y491404D01*
X91704Y493532D02*
X86096Y493532D01*
X91704Y493532D02*
X91704Y481828D01*
X86096Y481828D01*
X86096Y493532D01*
X86096Y484222D02*
X91704Y484222D01*
X91704Y486616D02*
X86096Y486616D01*
X86096Y489010D02*
X91704Y489010D01*
X91704Y491404D02*
X86096Y491404D01*
X81290Y493532D02*
X75682Y493532D01*
X81290Y493532D02*
X81290Y481828D01*
X75682Y481828D01*
X75682Y493532D01*
X75682Y484222D02*
X81290Y484222D01*
X81290Y486616D02*
X75682Y486616D01*
X75682Y489010D02*
X81290Y489010D01*
X81290Y491404D02*
X75682Y491404D01*
D14*
X12700Y373380D03*
X12700Y398780D03*
X12700Y424180D03*
X12700Y449580D03*
D10*
X685800Y487680D03*
X685800Y284480D03*
X228600Y284480D03*
X228600Y487680D03*
X25400Y543560D03*
X25400Y746760D03*
D11*
X7620Y525780D03*
X905510Y763270D03*
D10*
X889000Y746760D03*
X889000Y543560D03*
D12*
X152400Y670560D03*
X152400Y645160D03*
X152400Y619760D03*
X177800Y670560D03*
X177800Y645160D03*
X177800Y619760D03*
D13*
X229987Y689112D02*
X235341Y689112D01*
X235341Y677408D01*
X229987Y677408D01*
X229987Y689112D01*
X229987Y679802D02*
X235341Y679802D01*
X235341Y682196D02*
X229987Y682196D01*
X229987Y684590D02*
X235341Y684590D01*
X235341Y686984D02*
X229987Y686984D01*
X227213Y689112D02*
X221859Y689112D01*
X227213Y689112D02*
X227213Y677408D01*
X221859Y677408D01*
X221859Y689112D01*
X221859Y679802D02*
X227213Y679802D01*
X227213Y682196D02*
X221859Y682196D01*
X221859Y684590D02*
X227213Y684590D01*
X227213Y686984D02*
X221859Y686984D01*
X100340Y598668D02*
X94732Y598668D01*
X94732Y610372D01*
X100340Y610372D01*
X100340Y598668D01*
X100340Y601062D02*
X94732Y601062D01*
X94732Y603456D02*
X100340Y603456D01*
X100340Y605850D02*
X94732Y605850D01*
X94732Y608244D02*
X100340Y608244D01*
X105146Y598668D02*
X110754Y598668D01*
X105146Y598668D02*
X105146Y610372D01*
X110754Y610372D01*
X110754Y598668D01*
X110754Y601062D02*
X105146Y601062D01*
X105146Y603456D02*
X110754Y603456D01*
X110754Y605850D02*
X105146Y605850D01*
X105146Y608244D02*
X110754Y608244D01*
X115560Y598668D02*
X121168Y598668D01*
X115560Y598668D02*
X115560Y610372D01*
X121168Y610372D01*
X121168Y598668D01*
X121168Y601062D02*
X115560Y601062D01*
X115560Y603456D02*
X121168Y603456D01*
X121168Y605850D02*
X115560Y605850D01*
X115560Y608244D02*
X121168Y608244D01*
D14*
X12700Y607060D03*
X12700Y581660D03*
X901700Y683260D03*
X901700Y657860D03*
X901700Y632460D03*
X901700Y607060D03*
D13*
X73797Y522468D02*
X68189Y522468D01*
X68189Y534172D01*
X73797Y534172D01*
X73797Y522468D01*
X73797Y524862D02*
X68189Y524862D01*
X68189Y527256D02*
X73797Y527256D01*
X73797Y529650D02*
X68189Y529650D01*
X68189Y532044D02*
X73797Y532044D01*
X78603Y522468D02*
X84211Y522468D01*
X78603Y522468D02*
X78603Y534172D01*
X84211Y534172D01*
X84211Y522468D01*
X84211Y524862D02*
X78603Y524862D01*
X78603Y527256D02*
X84211Y527256D01*
X84211Y529650D02*
X78603Y529650D01*
X78603Y532044D02*
X84211Y532044D01*
X96510Y752612D02*
X102118Y752612D01*
X102118Y740908D01*
X96510Y740908D01*
X96510Y752612D01*
X96510Y743302D02*
X102118Y743302D01*
X102118Y745696D02*
X96510Y745696D01*
X96510Y748090D02*
X102118Y748090D01*
X102118Y750484D02*
X96510Y750484D01*
X91704Y752612D02*
X86096Y752612D01*
X91704Y752612D02*
X91704Y740908D01*
X86096Y740908D01*
X86096Y752612D01*
X86096Y743302D02*
X91704Y743302D01*
X91704Y745696D02*
X86096Y745696D01*
X86096Y748090D02*
X91704Y748090D01*
X91704Y750484D02*
X86096Y750484D01*
X81290Y752612D02*
X75682Y752612D01*
X81290Y752612D02*
X81290Y740908D01*
X75682Y740908D01*
X75682Y752612D01*
X75682Y743302D02*
X81290Y743302D01*
X81290Y745696D02*
X75682Y745696D01*
X75682Y748090D02*
X81290Y748090D01*
X81290Y750484D02*
X75682Y750484D01*
D14*
X12700Y632460D03*
X12700Y657860D03*
X12700Y683260D03*
X12700Y708660D03*
D10*
X685800Y746760D03*
X685800Y543560D03*
X228600Y543560D03*
X228600Y746760D03*
X25400Y802640D03*
X25400Y1005840D03*
D11*
X7620Y784860D03*
X905510Y1022350D03*
D10*
X889000Y1005840D03*
X889000Y802640D03*
D12*
X152400Y929640D03*
X152400Y904240D03*
X152400Y878840D03*
X177800Y929640D03*
X177800Y904240D03*
X177800Y878840D03*
D13*
X229987Y948192D02*
X235341Y948192D01*
X235341Y936488D01*
X229987Y936488D01*
X229987Y948192D01*
X229987Y938882D02*
X235341Y938882D01*
X235341Y941276D02*
X229987Y941276D01*
X229987Y943670D02*
X235341Y943670D01*
X235341Y946064D02*
X229987Y946064D01*
X227213Y948192D02*
X221859Y948192D01*
X227213Y948192D02*
X227213Y936488D01*
X221859Y936488D01*
X221859Y948192D01*
X221859Y938882D02*
X227213Y938882D01*
X227213Y941276D02*
X221859Y941276D01*
X221859Y943670D02*
X227213Y943670D01*
X227213Y946064D02*
X221859Y946064D01*
X100340Y857748D02*
X94732Y857748D01*
X94732Y869452D01*
X100340Y869452D01*
X100340Y857748D01*
X100340Y860142D02*
X94732Y860142D01*
X94732Y862536D02*
X100340Y862536D01*
X100340Y864930D02*
X94732Y864930D01*
X94732Y867324D02*
X100340Y867324D01*
X105146Y857748D02*
X110754Y857748D01*
X105146Y857748D02*
X105146Y869452D01*
X110754Y869452D01*
X110754Y857748D01*
X110754Y860142D02*
X105146Y860142D01*
X105146Y862536D02*
X110754Y862536D01*
X110754Y864930D02*
X105146Y864930D01*
X105146Y867324D02*
X110754Y867324D01*
X115560Y857748D02*
X121168Y857748D01*
X115560Y857748D02*
X115560Y869452D01*
X121168Y869452D01*
X121168Y857748D01*
X121168Y860142D02*
X115560Y860142D01*
X115560Y862536D02*
X121168Y862536D01*
X121168Y864930D02*
X115560Y864930D01*
X115560Y867324D02*
X121168Y867324D01*
D14*
X12700Y866140D03*
X12700Y840740D03*
X901700Y942340D03*
X901700Y916940D03*
X901700Y891540D03*
X901700Y866140D03*
D13*
X73797Y781548D02*
X68189Y781548D01*
X68189Y793252D01*
X73797Y793252D01*
X73797Y781548D01*
X73797Y783942D02*
X68189Y783942D01*
X68189Y786336D02*
X73797Y786336D01*
X73797Y788730D02*
X68189Y788730D01*
X68189Y791124D02*
X73797Y791124D01*
X78603Y781548D02*
X84211Y781548D01*
X78603Y781548D02*
X78603Y793252D01*
X84211Y793252D01*
X84211Y781548D01*
X84211Y783942D02*
X78603Y783942D01*
X78603Y786336D02*
X84211Y786336D01*
X84211Y788730D02*
X78603Y788730D01*
X78603Y791124D02*
X84211Y791124D01*
X96510Y1011692D02*
X102118Y1011692D01*
X102118Y999988D01*
X96510Y999988D01*
X96510Y1011692D01*
X96510Y1002382D02*
X102118Y1002382D01*
X102118Y1004776D02*
X96510Y1004776D01*
X96510Y1007170D02*
X102118Y1007170D01*
X102118Y1009564D02*
X96510Y1009564D01*
X91704Y1011692D02*
X86096Y1011692D01*
X91704Y1011692D02*
X91704Y999988D01*
X86096Y999988D01*
X86096Y1011692D01*
X86096Y1002382D02*
X91704Y1002382D01*
X91704Y1004776D02*
X86096Y1004776D01*
X86096Y1007170D02*
X91704Y1007170D01*
X91704Y1009564D02*
X86096Y1009564D01*
X81290Y1011692D02*
X75682Y1011692D01*
X81290Y1011692D02*
X81290Y999988D01*
X75682Y999988D01*
X75682Y1011692D01*
X75682Y1002382D02*
X81290Y1002382D01*
X81290Y1004776D02*
X75682Y1004776D01*
X75682Y1007170D02*
X81290Y1007170D01*
X81290Y1009564D02*
X75682Y1009564D01*
D14*
X12700Y891540D03*
X12700Y916940D03*
X12700Y942340D03*
X12700Y967740D03*
D10*
X685800Y1005840D03*
X685800Y802640D03*
X228600Y802640D03*
X228600Y1005840D03*
X25400Y1061720D03*
X25400Y1264920D03*
D11*
X7620Y1043940D03*
X905510Y1281430D03*
D10*
X889000Y1264920D03*
X889000Y1061720D03*
D12*
X152400Y1188720D03*
X152400Y1163320D03*
X152400Y1137920D03*
X177800Y1188720D03*
X177800Y1163320D03*
X177800Y1137920D03*
D13*
X229987Y1207272D02*
X235341Y1207272D01*
X235341Y1195568D01*
X229987Y1195568D01*
X229987Y1207272D01*
X229987Y1197962D02*
X235341Y1197962D01*
X235341Y1200356D02*
X229987Y1200356D01*
X229987Y1202750D02*
X235341Y1202750D01*
X235341Y1205144D02*
X229987Y1205144D01*
X227213Y1207272D02*
X221859Y1207272D01*
X227213Y1207272D02*
X227213Y1195568D01*
X221859Y1195568D01*
X221859Y1207272D01*
X221859Y1197962D02*
X227213Y1197962D01*
X227213Y1200356D02*
X221859Y1200356D01*
X221859Y1202750D02*
X227213Y1202750D01*
X227213Y1205144D02*
X221859Y1205144D01*
X100340Y1116828D02*
X94732Y1116828D01*
X94732Y1128532D01*
X100340Y1128532D01*
X100340Y1116828D01*
X100340Y1119222D02*
X94732Y1119222D01*
X94732Y1121616D02*
X100340Y1121616D01*
X100340Y1124010D02*
X94732Y1124010D01*
X94732Y1126404D02*
X100340Y1126404D01*
X105146Y1116828D02*
X110754Y1116828D01*
X105146Y1116828D02*
X105146Y1128532D01*
X110754Y1128532D01*
X110754Y1116828D01*
X110754Y1119222D02*
X105146Y1119222D01*
X105146Y1121616D02*
X110754Y1121616D01*
X110754Y1124010D02*
X105146Y1124010D01*
X105146Y1126404D02*
X110754Y1126404D01*
X115560Y1116828D02*
X121168Y1116828D01*
X115560Y1116828D02*
X115560Y1128532D01*
X121168Y1128532D01*
X121168Y1116828D01*
X121168Y1119222D02*
X115560Y1119222D01*
X115560Y1121616D02*
X121168Y1121616D01*
X121168Y1124010D02*
X115560Y1124010D01*
X115560Y1126404D02*
X121168Y1126404D01*
D14*
X12700Y1125220D03*
X12700Y1099820D03*
X901700Y1201420D03*
X901700Y1176020D03*
X901700Y1150620D03*
X901700Y1125220D03*
D13*
X73797Y1040628D02*
X68189Y1040628D01*
X68189Y1052332D01*
X73797Y1052332D01*
X73797Y1040628D01*
X73797Y1043022D02*
X68189Y1043022D01*
X68189Y1045416D02*
X73797Y1045416D01*
X73797Y1047810D02*
X68189Y1047810D01*
X68189Y1050204D02*
X73797Y1050204D01*
X78603Y1040628D02*
X84211Y1040628D01*
X78603Y1040628D02*
X78603Y1052332D01*
X84211Y1052332D01*
X84211Y1040628D01*
X84211Y1043022D02*
X78603Y1043022D01*
X78603Y1045416D02*
X84211Y1045416D01*
X84211Y1047810D02*
X78603Y1047810D01*
X78603Y1050204D02*
X84211Y1050204D01*
X96510Y1270772D02*
X102118Y1270772D01*
X102118Y1259068D01*
X96510Y1259068D01*
X96510Y1270772D01*
X96510Y1261462D02*
X102118Y1261462D01*
X102118Y1263856D02*
X96510Y1263856D01*
X96510Y1266250D02*
X102118Y1266250D01*
X102118Y1268644D02*
X96510Y1268644D01*
X91704Y1270772D02*
X86096Y1270772D01*
X91704Y1270772D02*
X91704Y1259068D01*
X86096Y1259068D01*
X86096Y1270772D01*
X86096Y1261462D02*
X91704Y1261462D01*
X91704Y1263856D02*
X86096Y1263856D01*
X86096Y1266250D02*
X91704Y1266250D01*
X91704Y1268644D02*
X86096Y1268644D01*
X81290Y1270772D02*
X75682Y1270772D01*
X81290Y1270772D02*
X81290Y1259068D01*
X75682Y1259068D01*
X75682Y1270772D01*
X75682Y1261462D02*
X81290Y1261462D01*
X81290Y1263856D02*
X75682Y1263856D01*
X75682Y1266250D02*
X81290Y1266250D01*
X81290Y1268644D02*
X75682Y1268644D01*
D14*
X12700Y1150620D03*
X12700Y1176020D03*
X12700Y1201420D03*
X12700Y1226820D03*
D10*
X685800Y1264920D03*
X685800Y1061720D03*
X228600Y1061720D03*
X228600Y1264920D03*
X25400Y1320800D03*
X25400Y1524000D03*
D11*
X7620Y1303020D03*
X905510Y1540510D03*
D10*
X889000Y1524000D03*
X889000Y1320800D03*
D12*
X152400Y1447800D03*
X152400Y1422400D03*
X152400Y1397000D03*
X177800Y1447800D03*
X177800Y1422400D03*
X177800Y1397000D03*
D13*
X229987Y1466352D02*
X235341Y1466352D01*
X235341Y1454648D01*
X229987Y1454648D01*
X229987Y1466352D01*
X229987Y1457042D02*
X235341Y1457042D01*
X235341Y1459436D02*
X229987Y1459436D01*
X229987Y1461830D02*
X235341Y1461830D01*
X235341Y1464224D02*
X229987Y1464224D01*
X227213Y1466352D02*
X221859Y1466352D01*
X227213Y1466352D02*
X227213Y1454648D01*
X221859Y1454648D01*
X221859Y1466352D01*
X221859Y1457042D02*
X227213Y1457042D01*
X227213Y1459436D02*
X221859Y1459436D01*
X221859Y1461830D02*
X227213Y1461830D01*
X227213Y1464224D02*
X221859Y1464224D01*
X100340Y1375908D02*
X94732Y1375908D01*
X94732Y1387612D01*
X100340Y1387612D01*
X100340Y1375908D01*
X100340Y1378302D02*
X94732Y1378302D01*
X94732Y1380696D02*
X100340Y1380696D01*
X100340Y1383090D02*
X94732Y1383090D01*
X94732Y1385484D02*
X100340Y1385484D01*
X105146Y1375908D02*
X110754Y1375908D01*
X105146Y1375908D02*
X105146Y1387612D01*
X110754Y1387612D01*
X110754Y1375908D01*
X110754Y1378302D02*
X105146Y1378302D01*
X105146Y1380696D02*
X110754Y1380696D01*
X110754Y1383090D02*
X105146Y1383090D01*
X105146Y1385484D02*
X110754Y1385484D01*
X115560Y1375908D02*
X121168Y1375908D01*
X115560Y1375908D02*
X115560Y1387612D01*
X121168Y1387612D01*
X121168Y1375908D01*
X121168Y1378302D02*
X115560Y1378302D01*
X115560Y1380696D02*
X121168Y1380696D01*
X121168Y1383090D02*
X115560Y1383090D01*
X115560Y1385484D02*
X121168Y1385484D01*
D14*
X12700Y1384300D03*
X12700Y1358900D03*
X901700Y1460500D03*
X901700Y1435100D03*
X901700Y1409700D03*
X901700Y1384300D03*
D13*
X73797Y1299708D02*
X68189Y1299708D01*
X68189Y1311412D01*
X73797Y1311412D01*
X73797Y1299708D01*
X73797Y1302102D02*
X68189Y1302102D01*
X68189Y1304496D02*
X73797Y1304496D01*
X73797Y1306890D02*
X68189Y1306890D01*
X68189Y1309284D02*
X73797Y1309284D01*
X78603Y1299708D02*
X84211Y1299708D01*
X78603Y1299708D02*
X78603Y1311412D01*
X84211Y1311412D01*
X84211Y1299708D01*
X84211Y1302102D02*
X78603Y1302102D01*
X78603Y1304496D02*
X84211Y1304496D01*
X84211Y1306890D02*
X78603Y1306890D01*
X78603Y1309284D02*
X84211Y1309284D01*
X96510Y1529852D02*
X102118Y1529852D01*
X102118Y1518148D01*
X96510Y1518148D01*
X96510Y1529852D01*
X96510Y1520542D02*
X102118Y1520542D01*
X102118Y1522936D02*
X96510Y1522936D01*
X96510Y1525330D02*
X102118Y1525330D01*
X102118Y1527724D02*
X96510Y1527724D01*
X91704Y1529852D02*
X86096Y1529852D01*
X91704Y1529852D02*
X91704Y1518148D01*
X86096Y1518148D01*
X86096Y1529852D01*
X86096Y1520542D02*
X91704Y1520542D01*
X91704Y1522936D02*
X86096Y1522936D01*
X86096Y1525330D02*
X91704Y1525330D01*
X91704Y1527724D02*
X86096Y1527724D01*
X81290Y1529852D02*
X75682Y1529852D01*
X81290Y1529852D02*
X81290Y1518148D01*
X75682Y1518148D01*
X75682Y1529852D01*
X75682Y1520542D02*
X81290Y1520542D01*
X81290Y1522936D02*
X75682Y1522936D01*
X75682Y1525330D02*
X81290Y1525330D01*
X81290Y1527724D02*
X75682Y1527724D01*
D14*
X12700Y1409700D03*
X12700Y1435100D03*
X12700Y1460500D03*
X12700Y1485900D03*
D10*
X685800Y1524000D03*
X685800Y1320800D03*
X228600Y1320800D03*
X228600Y1524000D03*
D15*
X-26238Y1522730D03*
X940638Y1522730D03*
D16*
X-35293Y63500D02*
X-35290Y63722D01*
X-35282Y63944D01*
X-35268Y64166D01*
X-35249Y64388D01*
X-35225Y64608D01*
X-35195Y64829D01*
X-35160Y65048D01*
X-35119Y65267D01*
X-35073Y65484D01*
X-35022Y65700D01*
X-34965Y65915D01*
X-34903Y66129D01*
X-34836Y66340D01*
X-34764Y66551D01*
X-34686Y66759D01*
X-34604Y66965D01*
X-34516Y67169D01*
X-34424Y67372D01*
X-34326Y67571D01*
X-34224Y67768D01*
X-34117Y67963D01*
X-34005Y68155D01*
X-33888Y68344D01*
X-33767Y68531D01*
X-33641Y68714D01*
X-33511Y68894D01*
X-33376Y69071D01*
X-33238Y69244D01*
X-33095Y69414D01*
X-32947Y69581D01*
X-32796Y69744D01*
X-32641Y69903D01*
X-32482Y70058D01*
X-32319Y70209D01*
X-32152Y70357D01*
X-31982Y70500D01*
X-31809Y70638D01*
X-31632Y70773D01*
X-31452Y70903D01*
X-31269Y71029D01*
X-31082Y71150D01*
X-30893Y71267D01*
X-30701Y71379D01*
X-30506Y71486D01*
X-30309Y71588D01*
X-30110Y71686D01*
X-29907Y71778D01*
X-29703Y71866D01*
X-29497Y71948D01*
X-29289Y72026D01*
X-29078Y72098D01*
X-28867Y72165D01*
X-28653Y72227D01*
X-28438Y72284D01*
X-28222Y72335D01*
X-28005Y72381D01*
X-27786Y72422D01*
X-27567Y72457D01*
X-27346Y72487D01*
X-27126Y72511D01*
X-26904Y72530D01*
X-26682Y72544D01*
X-26460Y72552D01*
X-26238Y72555D01*
X-26016Y72552D01*
X-25794Y72544D01*
X-25572Y72530D01*
X-25350Y72511D01*
X-25130Y72487D01*
X-24909Y72457D01*
X-24690Y72422D01*
X-24471Y72381D01*
X-24254Y72335D01*
X-24038Y72284D01*
X-23823Y72227D01*
X-23609Y72165D01*
X-23398Y72098D01*
X-23187Y72026D01*
X-22979Y71948D01*
X-22773Y71866D01*
X-22569Y71778D01*
X-22366Y71686D01*
X-22167Y71588D01*
X-21970Y71486D01*
X-21775Y71379D01*
X-21583Y71267D01*
X-21394Y71150D01*
X-21207Y71029D01*
X-21024Y70903D01*
X-20844Y70773D01*
X-20667Y70638D01*
X-20494Y70500D01*
X-20324Y70357D01*
X-20157Y70209D01*
X-19994Y70058D01*
X-19835Y69903D01*
X-19680Y69744D01*
X-19529Y69581D01*
X-19381Y69414D01*
X-19238Y69244D01*
X-19100Y69071D01*
X-18965Y68894D01*
X-18835Y68714D01*
X-18709Y68531D01*
X-18588Y68344D01*
X-18471Y68155D01*
X-18359Y67963D01*
X-18252Y67768D01*
X-18150Y67571D01*
X-18052Y67372D01*
X-17960Y67169D01*
X-17872Y66965D01*
X-17790Y66759D01*
X-17712Y66551D01*
X-17640Y66340D01*
X-17573Y66129D01*
X-17511Y65915D01*
X-17454Y65700D01*
X-17403Y65484D01*
X-17357Y65267D01*
X-17316Y65048D01*
X-17281Y64829D01*
X-17251Y64608D01*
X-17227Y64388D01*
X-17208Y64166D01*
X-17194Y63944D01*
X-17186Y63722D01*
X-17183Y63500D01*
X-17186Y63278D01*
X-17194Y63056D01*
X-17208Y62834D01*
X-17227Y62612D01*
X-17251Y62392D01*
X-17281Y62171D01*
X-17316Y61952D01*
X-17357Y61733D01*
X-17403Y61516D01*
X-17454Y61300D01*
X-17511Y61085D01*
X-17573Y60871D01*
X-17640Y60660D01*
X-17712Y60449D01*
X-17790Y60241D01*
X-17872Y60035D01*
X-17960Y59831D01*
X-18052Y59628D01*
X-18150Y59429D01*
X-18252Y59232D01*
X-18359Y59037D01*
X-18471Y58845D01*
X-18588Y58656D01*
X-18709Y58469D01*
X-18835Y58286D01*
X-18965Y58106D01*
X-19100Y57929D01*
X-19238Y57756D01*
X-19381Y57586D01*
X-19529Y57419D01*
X-19680Y57256D01*
X-19835Y57097D01*
X-19994Y56942D01*
X-20157Y56791D01*
X-20324Y56643D01*
X-20494Y56500D01*
X-20667Y56362D01*
X-20844Y56227D01*
X-21024Y56097D01*
X-21207Y55971D01*
X-21394Y55850D01*
X-21583Y55733D01*
X-21775Y55621D01*
X-21970Y55514D01*
X-22167Y55412D01*
X-22366Y55314D01*
X-22569Y55222D01*
X-22773Y55134D01*
X-22979Y55052D01*
X-23187Y54974D01*
X-23398Y54902D01*
X-23609Y54835D01*
X-23823Y54773D01*
X-24038Y54716D01*
X-24254Y54665D01*
X-24471Y54619D01*
X-24690Y54578D01*
X-24909Y54543D01*
X-25130Y54513D01*
X-25350Y54489D01*
X-25572Y54470D01*
X-25794Y54456D01*
X-26016Y54448D01*
X-26238Y54445D01*
X-26460Y54448D01*
X-26682Y54456D01*
X-26904Y54470D01*
X-27126Y54489D01*
X-27346Y54513D01*
X-27567Y54543D01*
X-27786Y54578D01*
X-28005Y54619D01*
X-28222Y54665D01*
X-28438Y54716D01*
X-28653Y54773D01*
X-28867Y54835D01*
X-29078Y54902D01*
X-29289Y54974D01*
X-29497Y55052D01*
X-29703Y55134D01*
X-29907Y55222D01*
X-30110Y55314D01*
X-30309Y55412D01*
X-30506Y55514D01*
X-30701Y55621D01*
X-30893Y55733D01*
X-31082Y55850D01*
X-31269Y55971D01*
X-31452Y56097D01*
X-31632Y56227D01*
X-31809Y56362D01*
X-31982Y56500D01*
X-32152Y56643D01*
X-32319Y56791D01*
X-32482Y56942D01*
X-32641Y57097D01*
X-32796Y57256D01*
X-32947Y57419D01*
X-33095Y57586D01*
X-33238Y57756D01*
X-33376Y57929D01*
X-33511Y58106D01*
X-33641Y58286D01*
X-33767Y58469D01*
X-33888Y58656D01*
X-34005Y58845D01*
X-34117Y59037D01*
X-34224Y59232D01*
X-34326Y59429D01*
X-34424Y59628D01*
X-34516Y59831D01*
X-34604Y60035D01*
X-34686Y60241D01*
X-34764Y60449D01*
X-34836Y60660D01*
X-34903Y60871D01*
X-34965Y61085D01*
X-35022Y61300D01*
X-35073Y61516D01*
X-35119Y61733D01*
X-35160Y61952D01*
X-35195Y62171D01*
X-35225Y62392D01*
X-35249Y62612D01*
X-35268Y62834D01*
X-35282Y63056D01*
X-35290Y63278D01*
X-35293Y63500D01*
D17*
X-26238Y63500D03*
M02*
