M48
;GenerationSoftware,Autodesk,EAGLE,9.6.2*%
;CreationDate,2021-06-04T16:53:19Z*%
FMAT,2
ICI,OFF
METRIC,TZ,000.000
T5C0.305
T4C0.381
T3C0.508
T2C1.016
T1C3.302
%
G90
M71
T1
X68580Y22860
X22860Y100584
X2540Y22860
X88900Y2540
X22860Y152400
X2540Y2540
X88900Y22860
X68580Y2540
X22860Y2540
X22860Y22860
X2540Y28448
X2540Y48768
X88900Y48768
X88900Y28448
X68580Y48768
X68580Y28448
X22860Y28448
X22860Y48768
X2540Y54356
X2540Y74676
X88900Y74676
X88900Y54356
X68580Y74676
X68580Y54356
X22860Y54356
X22860Y74676
X2540Y80264
X2540Y100584
X88900Y100584
X88900Y80264
X68580Y100584
X68580Y80264
X22860Y80264
X2540Y106172
X2540Y126492
X88900Y126492
X88900Y106172
X68580Y126492
X68580Y106172
X22860Y106172
X22860Y126492
X2540Y132080
X2540Y152400
X88900Y152400
X88900Y132080
X68580Y152400
X68580Y132080
X22860Y132080
T2
X1270Y148590
X1270Y122682
X1270Y138430
X1270Y135890
X90170Y146050
X90170Y143510
X1270Y32258
X1270Y8890
X1270Y6350
X90170Y16510
X90170Y13970
X90170Y11430
X90170Y8890
X1270Y11430
X1270Y13970
X1270Y16510
X1270Y19050
X90170Y140970
X90170Y138430
X1270Y140970
X1270Y143510
X1270Y146050
X90170Y89154
X1270Y34798
X90170Y65786
X90170Y42418
X90170Y39878
X90170Y37338
X90170Y34798
X1270Y37338
X1270Y39878
X1270Y42418
X1270Y44958
X1270Y60706
X1270Y58166
X90170Y68326
X90170Y63246
X90170Y60706
X1270Y63246
X1270Y65786
X1270Y68326
X1270Y70866
X1270Y86614
X1270Y84074
X90170Y94234
X90170Y91694
X90170Y86614
X1270Y89154
X1270Y91694
X1270Y94234
X1270Y96774
X1270Y112522
X1270Y109982
X90170Y120142
X90170Y117602
X90170Y115062
X90170Y112522
X1270Y115062
X1270Y117602
X1270Y120142
T3
X17780Y15240
X15240Y15240
X17780Y12700
X15240Y12700
X17780Y10160
X17780Y41148
X15240Y41148
X17780Y38608
X15240Y38608
X17780Y36068
X17780Y90424
X15240Y90424
X17780Y87884
X15240Y87884
X15240Y10160
X15240Y64516
X17780Y61976
X15240Y61976
X17780Y67056
X15240Y67056
X17780Y144780
X15240Y144780
X17780Y142240
X15240Y142240
X17780Y139700
X15240Y139700
X17780Y64516
X17780Y92964
X15240Y92964
X17780Y118872
X15240Y118872
X17780Y116332
X15240Y116332
X17780Y113792
X15240Y113792
X15240Y36068
T4
X18034Y136017
X15010Y148590
X10160Y145161
X10097Y141034
X14351Y144145
X17018Y136017
X19812Y33782
X5461Y130556
X7620Y150114
X10160Y150114
X7620Y139700
X16010Y3675
X14224Y8636
X8890Y21590
X11303Y10795
X4953Y20447
X12700Y18034
X20574Y18796
X8128Y12827
X9398Y5588
X16510Y1524
X13335Y6985
X19812Y7874
X24638Y7493
X27051Y4572
X18034Y6477
X15010Y19050
X10160Y15621
X10097Y11493
X14351Y14605
X17018Y6477
X14859Y17399
X5461Y1016
X7620Y20574
X10160Y20574
X7620Y10160
X16010Y29583
X14859Y146939
X14224Y34544
X8890Y47498
X11303Y36703
X4953Y46355
X12700Y43942
X20574Y44704
X8128Y38735
X9398Y31496
X16510Y27432
X13335Y32893
X24638Y33401
X27051Y30480
X18034Y32385
X15010Y44958
X10160Y41529
X10097Y37402
X14351Y40513
X17018Y32385
X14859Y43307
X5461Y26924
X7620Y46482
X10160Y46482
X7620Y36068
X16010Y55491
X14224Y60452
X8890Y73406
X11303Y62611
X4953Y72263
X12700Y69850
X20574Y70612
X8128Y64643
X9398Y57404
X16510Y53340
X13335Y58801
X19812Y59690
X24638Y59309
X27051Y56388
X18034Y58293
X15010Y70866
X10160Y67437
X10097Y63309
X14351Y66421
X17018Y58293
X14859Y69215
X5461Y52832
X7620Y72390
X10160Y72390
X7620Y61976
X16010Y81399
X14224Y86360
X8890Y99314
X11303Y88519
X4953Y98171
X12700Y95758
X20574Y96520
X8128Y90551
X9398Y83312
X16510Y79248
X13335Y84709
X19812Y85598
X24638Y85217
X27051Y82296
X18034Y84201
X15010Y96774
X10160Y93345
X10097Y89217
X14351Y92329
X17018Y84201
X14859Y95123
X5461Y78740
X7620Y98298
X10160Y98298
X7620Y87884
X16010Y107307
X16510Y105156
X14224Y112268
X8890Y125222
X11303Y114427
X4953Y124079
X12700Y121666
X20574Y122428
X8128Y116459
X9398Y109220
X13335Y110617
X19812Y111506
X24638Y111125
X27051Y108204
X18034Y110109
X15010Y122682
X10160Y119253
X10097Y115125
X14351Y118237
X17018Y110109
X14859Y121031
X5461Y104648
X7620Y124206
X10160Y124206
X7620Y113792
X16010Y133215
X14224Y138176
X8890Y151130
X11303Y140335
X4953Y149987
X12700Y147574
X20574Y148336
X8128Y142367
X9398Y135128
X16510Y131064
X13335Y136525
X19812Y137414
X24638Y137033
X27051Y134112
T5
X27178Y121412
X27178Y95504
X27178Y69596
X27178Y43688
X27178Y17780
X27178Y147320
M30